<svg xmlns="http://www.w3.org/2000/svg" height="24px" viewBox="0 -960 960 960" width="24px" fill="#1f1f1f"><path d="M160-240v-480V-505.08v-28.77V-240Zm278 40H184.62q-27.62 0-46.12-18.5Q120-237 120-264.62v-430.76q0-27.62 18.5-46.12Q157-760 184.62-760h199.23l80 80h311.53q27.62 0 46.12 18.5Q840-643 840-615.38v136.53q-9.31-8-18.92-14.3-9.62-6.31-21.08-11.93v-110.3q0-10.77-6.92-17.7-6.93-6.92-17.7-6.92H447.77l-80-80H184.62q-10.77 0-17.7 6.92-6.92 6.93-6.92 17.7v430.76q0 10.77 6.92 17.7 6.93 6.92 17.7 6.92h243q1.46 11 4.11 20.62 2.65 9.61 6.27 19.38Zm355.42-193.42Q840-346.85 840-280t-46.58 113.42Q746.85-120 680-120t-113.42-46.58Q520-213.15 520-280t46.58-113.42Q613.15-440 680-440t113.42 46.58Zm-128.8 214.96h30.76v-123.08h-30.76v123.08ZM694-347.54q6-6 6-14t-6-14q-6-6-14-6t-14 6q-6 6-6 14t6 14q6 6 14 6t14-6Z"/></svg>