<svg xmlns="http://www.w3.org/2000/svg" height="24px" viewBox="0 -960 960 960" width="24px" fill="#1f1f1f"><path d="M403.5-543.5Q372-575 372-620t31.5-76.5Q435-728 480-728t76.5 31.5Q588-665 588-620t-31.5 76.5Q525-512 480-512t-76.5-31.5ZM212-232v-52q0-22 13.5-41.5T262-356q55-26 109.5-39T480-408q54 0 108.5 13T698-356q23 11 36.5 30.5T748-284v52H212Zm28-28h480v-24q0-14-9.5-26.5T684-332q-48-23-99.69-35.5Q532.63-380 480-380t-104.31 12.5Q324-355 276-332q-17 9-26.5 21.5T240-284v24Zm296.5-303.5Q560-587 560-620t-23.5-56.5Q513-700 480-700t-56.5 23.5Q400-653 400-620t23.5 56.5Q447-540 480-540t56.5-23.5ZM480-620Zm0 360Z"/></svg>