<svg xmlns="http://www.w3.org/2000/svg" height="24px" viewBox="0 -960 960 960" width="24px" fill="#1f1f1f"><path d="M576.5-403.74q39.5-39.73 39.5-96.5 0-56.76-39.74-96.26-39.73-39.5-96.5-39.5-56.76 0-96.26 39.74-39.5 39.73-39.5 96.5 0 56.76 39.74 96.26 39.73 39.5 96.5 39.5 56.76 0 96.26-39.74Zm-173-19.76Q372-455 372-500t31.5-76.5Q435-608 480-608t76.5 31.5Q588-545 588-500t-31.5 76.5Q525-392 480-392t-76.5-31.5ZM252-319.5Q149-387 96-500q53-113 155.86-180.5 102.85-67.5 228-67.5Q605-748 708-680.5 811-613 864-500q-53 113-155.86 180.5-102.85 67.5-228 67.5Q355-252 252-319.5ZM480-500Zm207.5 160.5Q782-399 832-500q-50-101-144.5-160.5T480-720q-113 0-207.5 59.5T128-500q50 101 144.5 160.5T480-280q113 0 207.5-59.5Z"/></svg>