<svg xmlns="http://www.w3.org/2000/svg" height="24px" viewBox="0 -960 960 960" width="24px" fill="#1f1f1f"><path d="M574.5-774.5Q560-789 560-810t14.5-35.5Q589-860 610-860t35.5 14.5Q660-831 660-810t-14.5 35.5Q631-760 610-760t-35.5-14.5Zm0 660Q560-129 560-150t14.5-35.5Q589-200 610-200t35.5 14.5Q660-171 660-150t-14.5 35.5Q631-100 610-100t-35.5-14.5Zm160-520Q720-649 720-670t14.5-35.5Q749-720 770-720t35.5 14.5Q820-691 820-670t-14.5 35.5Q791-620 770-620t-35.5-14.5Zm0 380Q720-269 720-290t14.5-35.5Q749-340 770-340t35.5 14.5Q820-311 820-290t-14.5 35.5Q791-240 770-240t-35.5-14.5Zm60-190Q780-459 780-480t14.5-35.5Q809-530 830-530t35.5 14.5Q880-501 880-480t-14.5 35.5Q851-430 830-430t-35.5-14.5ZM480-80q-83 0-156-31.5T197-197q-54-54-85.5-127T80-480q0-83 31.5-156T197-763q54-54 127-85.5T480-880v80q-134 0-227 93t-93 227q0 134 93 227t227 93v80Zm-56.5-343.5Q400-447 400-480q0-5 .5-10.5T403-501l-83-83 56-56 83 83q4-1 21-3 33 0 56.5 23.5T560-480q0 33-23.5 56.5T480-400q-33 0-56.5-23.5Z"/></svg>