<svg xmlns="http://www.w3.org/2000/svg" height="24px" viewBox="0 -960 960 960" width="24px" fill="#1f1f1f"><path d="M480-110 146-295v-370l334-185 334 185v370L480-110ZM369-558q20-26 49-41t62-15q33 0 62 15t49 41l178-99-289-161-289 161 178 99Zm97 408v-195q-51-8-85.5-46T346-480q0-14 2.5-26.5T356-532L174-634v322l292 162Zm89.5-254.5Q586-435 586-480t-30.5-75.5Q525-586 480-586t-75.5 30.5Q374-525 374-480t30.5 75.5Q435-374 480-374t75.5-30.5ZM494-150l292-162v-322L604-532q5 13 7.5 25.5T614-480q0 51-34.5 89T494-345v195Z"/></svg>